<svg xmlns="http://www.w3.org/2000/svg" viewBox="0 0 420 120" role="img" aria-labelledby="title desc">
  <title id="title">Logo Semear Futuro</title>
  <desc id="desc">Semente formando broto em forma de coração com texto Semear Futuro</desc>
  <defs>
    <linearGradient id="gSeed" x1="0" y1="0" x2="1" y2="1">
      <stop offset="0%" stop-color="#d4622a"/>
      <stop offset="100%" stop-color="#4d8f65"/>
    </linearGradient>
  </defs>
  <g transform="translate(8 8)">
    <circle cx="52" cy="52" r="45" fill="#eaf2fb"/>
    <path d="M36 66c0-12 7-18 15-18s15 6 15 18-7 20-15 20-15-8-15-20z" fill="url(#gSeed)"/>
    <path d="M52 26c10 0 19 8 19 18 0 4-1 8-4 11-5-3-10-6-15-9-5 3-10 6-15 9-3-3-4-7-4-11 0-10 9-18 19-18z" fill="#0c2340"/>
    <path d="M52 44v26" stroke="#0c2340" stroke-width="4" stroke-linecap="round"/>
  </g>
  <g fill="#0c2340" font-family="Nunito, Segoe UI, Arial, sans-serif">
    <text x="116" y="55" font-size="36" font-weight="800">Semear Futuro</text>
    <text x="118" y="80" font-size="16" font-weight="700" fill="#4d8f65" letter-spacing="1">VOLUNTARIADO</text>
  </g>
</svg>
